<?xml version="1.0"?>
<svg width="520" height="520" xmlns="http://www.w3.org/2000/svg" xmlns:svg="http://www.w3.org/2000/svg">
  <path d="m256,159.1c-53.02,0 -95.1,42.98 -95.1,95.1s41.2,96.9 95.1,96.9s95.1,-42.98 95.1,-95.1s-42.1,-96.9 -95.1,-96.9zm253.3,187.9l-63.2,-91.9l63.15,-91.01c6.33,-9.13 1.1,-21.74 -9.83,-23.72l-109,-19.7l-19.7,-109c-1.97,-10.93 -14.59,-16.16 -23.72,-9.82l-91,64.04l-91.9,-63.15c-9.13,-6.34 -21.74,-1.11 -23.72,9.82l-18.78,109.04l-109.04,19.7c-10.93,1.9 -16.16,14.6 -9.82,22.8l63.15,91.9l-63.15,91.01c-6.33,9.12 -1.1,21.74 9.82,23.72l109,19.7l19.7,109c1.98,10.93 14.59,16.16 23.72,9.82l91.02,-63.15l91.01,63.15c9.13,6.33 21.75,1.11 23.72,-9.82l19.7,-109l109,-19.7c10.97,-1.93 16.17,-14.63 9.87,-23.73zm-253.3,36.1c-70.69,0 -127.1,-57.31 -127.1,-127.1c0,-70.69 57.31,-127.1 127.1,-127.1s127.1,57.3 127.1,127.1c0,70.7 -56.4,127.1 -127.1,127.1z" id="svg_1"/>
</svg>
